<svg width="32" height="32" viewBox="0 0 32 32" fill="none" xmlns="http://www.w3.org/2000/svg">
<circle cx="16" cy="16" r="16" fill="#EBC335"/>
<path d="M21.3293 11.8518C20.6671 11.8531 20.1286 11.3168 20.1273 10.6546C20.126 9.9923 20.6622 9.45381 21.3248 9.45251C21.9874 9.45122 22.5259 9.98776 22.5272 10.65C22.5281 11.3123 21.9919 11.8505 21.3293 11.8518Z" fill="#2D2D2D"/>
<path fill-rule="evenodd" clip-rule="evenodd" d="M16.0096 21.1342C13.1742 21.1397 10.8709 18.8457 10.8654 16.0097C10.8599 13.1744 13.1545 10.8707 15.9898 10.8652C18.8258 10.8597 21.1294 13.1549 21.1349 15.99C21.1404 18.826 18.8452 21.1287 16.0096 21.1342ZM15.9934 12.667C14.153 12.6702 12.6633 14.1655 12.6665 16.0062C12.6701 17.8472 14.1657 19.3366 16.006 19.333C17.847 19.3295 19.3367 17.8345 19.3332 15.9935C19.3296 14.1525 17.834 12.6634 15.9934 12.667Z" fill="#2D2D2D"/>
<path fill-rule="evenodd" clip-rule="evenodd" d="M9.43267 6.53873C10.0677 6.2899 10.7944 6.11947 11.8585 6.06925C12.9251 6.01806 13.2656 6.00639 15.9807 6.00121C18.6965 5.99603 19.037 6.00639 20.1036 6.05369C21.168 6.0997 21.895 6.26754 22.5314 6.51379C23.1897 6.76748 23.7483 7.10898 24.305 7.66336C24.8616 8.21837 25.2044 8.77502 25.4613 9.43242C25.7098 10.0681 25.8802 10.7942 25.9308 11.8589C25.9813 12.9252 25.9936 13.2654 25.9988 15.9809C26.004 18.696 25.993 19.0369 25.9463 20.1042C25.9 21.1679 25.7325 21.8953 25.4863 22.5313C25.2319 23.1897 24.8911 23.7482 24.3367 24.3049C23.7823 24.8619 23.2251 25.2043 22.5677 25.4616C21.932 25.7098 21.2059 25.8802 20.1419 25.9311C19.0753 25.9816 18.7347 25.9936 16.0186 25.9988C13.3038 26.004 12.9633 25.9936 11.8967 25.9466C10.8324 25.9 10.105 25.7325 9.46896 25.4865C8.8106 25.2319 8.25202 24.8913 7.69538 24.3366C7.13843 23.7819 6.79532 23.225 6.53872 22.5676C6.28988 21.9322 6.12009 21.2058 6.06923 20.1421C6.01836 19.0751 6.00638 18.7343 6.0012 16.0191C5.996 13.3036 6.0067 12.9634 6.05335 11.8968C6.10033 10.8321 6.2672 10.1051 6.51344 9.46838C6.76777 8.81033 7.10862 8.25207 7.66364 7.69511C8.218 7.13847 8.77528 6.79501 9.43267 6.53873ZM10.1179 23.8066C10.4708 23.9423 11.0002 24.1043 11.9751 24.1468C13.0301 24.1925 13.3459 24.2025 16.0154 24.1973C18.6858 24.1924 19.0017 24.1811 20.0563 24.1315C21.0303 24.0852 21.5597 23.9213 21.9116 23.7839C22.3785 23.6015 22.7109 23.3834 23.0601 23.0338C23.4094 22.6829 23.6255 22.3495 23.8063 21.8826C23.9424 21.5295 24.1041 20.9997 24.1465 20.0248C24.1928 18.9705 24.2026 18.6542 24.1974 15.9841C24.1925 13.3146 24.1812 12.9984 24.131 11.9438C24.0849 10.9695 23.9213 10.4401 23.7836 10.0885C23.6012 9.62099 23.3838 9.28921 23.0333 8.93961C22.6827 8.59 22.3493 8.37454 21.8818 8.19375C21.5295 8.05734 20.9995 7.89598 20.0252 7.85355C18.9703 7.80721 18.654 7.79781 15.984 7.803C13.3145 7.80818 12.9986 7.81887 11.944 7.86877C10.9694 7.9151 10.4406 8.07872 10.0881 8.21643C9.62156 8.39884 9.28914 8.6156 8.93955 8.9665C8.59059 9.31739 8.37448 9.65015 8.1937 10.118C8.05828 10.4705 7.89529 11.0006 7.8535 11.9749C7.80748 13.0298 7.79777 13.3461 7.80296 16.0155C7.80782 18.6857 7.81915 19.0019 7.86873 20.0559C7.91441 21.0308 8.07932 21.5596 8.21638 21.9124C8.39879 22.3787 8.6162 22.7111 8.96644 23.0607C9.31734 23.409 9.65073 23.6258 10.1179 23.8066Z" fill="#2D2D2D"/>
</svg>
