<svg width="32" height="32" viewBox="0 0 32 32" fill="none" xmlns="http://www.w3.org/2000/svg">
<circle cx="16" cy="16" r="16" fill="#EBC335"/>
<path d="M20.2271 6H16.8565V19.6232C16.8565 21.2464 15.5601 22.5797 13.9469 22.5797C12.3336 22.5797 11.0372 21.2464 11.0372 19.6232C11.0372 18.029 12.3048 16.7246 13.8605 16.6667V13.2464C10.4323 13.3043 7.66666 16.1159 7.66666 19.6232C7.66666 23.1594 10.4899 26 13.9757 26C17.4615 26 20.2847 23.1304 20.2847 19.6232V12.6377C21.5523 13.5652 23.1079 14.1159 24.75 14.1449V10.7246C22.2149 10.6377 20.2271 8.55072 20.2271 6Z" fill="#2D2D2D"/>
</svg>
